Coordinates
version=1
nRows=5
nColumns=40
inDegrees=yes

Units are S.I. units (second, meters, Newtons, ...)
If the header above contains a line with 'inDegrees', this indicates whether rotational values are in degrees (yes) or radians (no).

endheader
time	pelvis_tilt	pelvis_list	pelvis_rotation	pelvis_tx	pelvis_ty	pelvis_tz	hip_flexion_r	hip_adduction_r	hip_rotation_r	knee_angle_r	knee_angle_r_beta	ankle_angle_r	subtalar_angle_r	mtp_angle_r	hip_flexion_l	hip_adduction_l	hip_rotation_l	knee_angle_l	knee_angle_l_beta	ankle_angle_l	subtalar_angle_l	mtp_angle_l	lumbar_extension	lumbar_bending	lumbar_rotation	arm_flex_r	arm_add_r	arm_rot_r	elbow_flex_r	pro_sup_r	wrist_flex_r	wrist_dev_r	arm_flex_l	arm_add_l	arm_rot_l	elbow_flex_l	pro_sup_l	wrist_flex_l	wrist_dev_l
      8.23333333	      0.31133616	      2.97577699	      4.28959413	     -0.35439326	      1.05175860	      0.03664001	     49.51557925	    -12.60203847	      0.49020865	     88.62640213	      1.54682252	    -12.83005671	    -18.93725476	      0.00000000	     66.56351118	     -2.35932449	      0.43147152	     70.98712945	      1.23895914	     -9.55105936	    -10.39122854	      0.00000000	    -63.36605145	      0.65500608	     -1.93923541	     85.86892585	     -7.58477769	      5.58089853	     42.69859286	     88.64809534	      0.00000000	      0.00000000	     89.14221176	     -5.09240049	     15.16019543	     37.14830996	     80.87078337	      0.00000000	      0.00000000
      8.24166667	      0.43637266	      2.72445937	      4.22866741	     -0.35447851	      1.05146328	      0.03620211	     50.98836405	    -12.56868111	      0.78295028	     91.34903571	      1.59434144	    -12.21164383	    -18.42088614	      0.00000000	     64.52867490	     -2.52177541	      0.39735419	     68.30936836	      1.19222339	    -10.62976656	    -10.46227282	      0.00000000	    -63.44558164	      0.92917491	     -1.68676286	     85.98302398	     -7.51652160	      5.75716802	     42.73492732	     88.61737549	      0.00000000	      0.00000000	     89.04430355	     -5.07240290	     14.69805957	     37.16162852	     81.90853327	      0.00000000	      0.00000000
      8.25000000	      0.60396342	      2.45931031	      4.26694772	     -0.35450955	      1.05152205	      0.03578157	     52.47371702	    -12.63008746	      0.93192222	     93.93382720	      1.63945456	    -12.04701679	    -18.44123492	      0.00000000	     62.32342394	     -2.53249255	      0.56581126	     65.44510642	      1.14223259	    -11.57803824	    -10.34417360	      0.00000000	    -63.58903825	      1.29257928	     -1.47826684	     86.12296648	     -7.42461513	      5.98241424	     42.68735940	     88.63330747	      0.00000000	      0.00000000	     89.03128027	     -5.30358823	     14.99421611	     37.17667378	     80.72303981	      0.00000000	      0.00000000
      8.25833333	      0.79274406	      2.00246282	      4.23008968	     -0.35430935	      1.05142141	      0.03555233	     53.94194876	    -12.49338184	      0.95650092	     96.42043657	      1.68285408	    -11.89195485	    -18.27522633	      0.00000000	     60.24016201	     -2.87269855	      0.71291857	     62.94218421	      1.09854835	    -12.57577096	    -10.02689305	      0.00000000	    -63.71437122	      1.69015012	     -1.04451366	     86.20981821	     -7.35374166	      6.07746563	     42.66500396	     88.65566757	      0.00000000	      0.00000000	     88.92460046	     -5.35964423	     14.70367185	     37.17911929	     80.72957246	      0.00000000	      0.00000000
      8.26666667	      0.89374858	      1.32520346	      4.19141109	     -0.35404683	      1.05136696	      0.03545492	     55.42951919	    -12.14557467	      0.78377377	     98.69562480	      1.72256361	    -11.57653831	    -18.17856930	      0.00000000	     58.31373728	     -3.36259769	      1.06377965	     60.52271127	      1.05632058	    -13.14425804	     -9.83721485	      0.00000000	    -63.75912875	      2.19701995	     -0.37095450	     86.29238675	     -7.28081458	      6.12688032	     42.65569100	     88.50403671	      0.00000000	      0.00000000	     88.83238796	     -5.36796616	     14.57109478	     37.13511654	     80.47319311	      0.00000000	      0.00000000
